<svg width="36" height="37" viewBox="0 0 36 37" fill="none" xmlns="http://www.w3.org/2000/svg">
<path d="M18.004 9.01367C12.8962 9.01367 8.77613 13.2491 8.77613 18.5C8.77613 23.7509 12.8962 27.9863 18.004 27.9863C23.1119 27.9863 27.2319 23.7509 27.2319 18.5C27.2319 13.2491 23.1119 9.01367 18.004 9.01367ZM18.004 24.6674C14.7032 24.6674 12.0047 21.9015 12.0047 18.5C12.0047 15.0985 14.6951 12.3326 18.004 12.3326C21.3129 12.3326 24.0033 15.0985 24.0033 18.5C24.0033 21.9015 21.3049 24.6674 18.004 24.6674ZM29.7617 8.62563C29.7617 9.8558 28.798 10.8383 27.6094 10.8383C26.4127 10.8383 25.457 9.84754 25.457 8.62563C25.457 7.40372 26.4207 6.41298 27.6094 6.41298C28.798 6.41298 29.7617 7.40372 29.7617 8.62563ZM35.8735 10.8713C35.737 7.90734 35.0784 5.28188 32.9662 3.11877C30.862 0.955651 28.3081 0.278646 25.4249 0.130035C22.4533 -0.0433449 13.5467 -0.0433449 10.5751 0.130035C7.69994 0.270389 5.14601 0.947395 3.0338 3.11051C0.921584 5.27362 0.271054 7.89908 0.126492 10.863C-0.042164 13.9178 -0.042164 23.0739 0.126492 26.1287C0.263023 29.0927 0.921584 31.7181 3.0338 33.8812C5.14601 36.0443 7.69191 36.7214 10.5751 36.87C13.5467 37.0433 22.4533 37.0433 25.4249 36.87C28.3081 36.7296 30.862 36.0526 32.9662 33.8812C35.0704 31.7181 35.7289 29.0927 35.8735 26.1287C36.0422 23.0739 36.0422 13.9261 35.8735 10.8713ZM32.0346 29.4064C31.4081 31.0246 30.1954 32.2713 28.6133 32.9235C26.2441 33.8895 20.6222 33.6666 18.004 33.6666C15.3858 33.6666 9.75594 33.8812 7.39476 32.9235C5.82064 32.2795 4.60792 31.0329 3.97345 29.4064C3.0338 26.9708 3.25064 21.1915 3.25064 18.5C3.25064 15.8085 3.04183 10.0209 3.97345 7.59361C4.59989 5.9754 5.8126 4.72872 7.39476 4.07648C9.76397 3.11051 15.3858 3.33343 18.004 3.33343C20.6222 3.33343 26.2521 3.11877 28.6133 4.07648C30.1874 4.72046 31.4001 5.96714 32.0346 7.59361C32.9742 10.0292 32.7574 15.8085 32.7574 18.5C32.7574 21.1915 32.9742 26.9791 32.0346 29.4064Z" fill="#FEF8F8"/>
</svg>
