<svg width="36" height="37" viewBox="0 0 36 37" fill="none" xmlns="http://www.w3.org/2000/svg">
<path d="M18 7.49911C12.158 7.49911 7.40893 12.3801 7.40089 18.3844C7.40089 20.4408 7.96339 22.4478 9.02411 24.1739L9.27321 24.5868L8.20446 28.6007L12.2143 27.5188L12.6 27.7583C14.2232 28.7493 16.0875 29.2779 17.992 29.2779H18C23.8339 29.2779 28.7116 24.3969 28.7116 18.3926C28.7116 15.4855 27.4902 12.7518 25.4893 10.6953C23.4804 8.63058 20.8286 7.49911 18 7.49911ZM24.2277 23.0589C23.9625 23.827 22.6929 24.5208 22.0821 24.6116C21.0696 24.7685 20.2821 24.6859 18.2652 23.794C15.075 22.3734 12.9857 19.0699 12.825 18.8551C12.6643 18.6404 11.5232 17.0795 11.5232 15.469C11.5232 13.8585 12.3429 13.0656 12.6402 12.7353C12.9295 12.4049 13.275 12.3223 13.492 12.3223C13.7009 12.3223 13.9179 12.3223 14.1027 12.3306C14.2955 12.3388 14.5607 12.2563 14.8179 12.8922C15.083 13.5446 15.7179 15.1551 15.7982 15.3203C15.8786 15.4855 15.9348 15.6754 15.8223 15.8902C15.2116 17.1455 14.5607 17.096 14.8902 17.6741C16.1196 19.8462 17.3491 20.5978 19.2214 21.5641C19.5429 21.7292 19.7277 21.7045 19.9125 21.4815C20.0973 21.2667 20.708 20.5234 20.917 20.2013C21.1259 19.871 21.3429 19.9288 21.6321 20.0362C21.9214 20.1435 23.4884 20.9364 23.8098 21.1016C24.1312 21.2667 24.3402 21.3493 24.4205 21.4815C24.4929 21.6384 24.4929 22.2991 24.2277 23.0589ZM32.1429 0H3.85714C1.72768 0 0 1.77567 0 3.96429V33.0357C0 35.2243 1.72768 37 3.85714 37H32.1429C34.2723 37 36 35.2243 36 33.0357V3.96429C36 1.77567 34.2723 0 32.1429 0ZM17.992 31.483C15.8545 31.483 13.7571 30.9297 11.9009 29.8891L5.14286 31.7143L6.95089 24.9254C5.83393 22.9433 5.24732 20.6886 5.24732 18.3761C5.25536 11.1578 10.9687 5.28571 17.992 5.28571C21.3991 5.28571 24.5973 6.64844 27.008 9.12612C29.4107 11.6038 30.8571 14.8908 30.8571 18.3926C30.8571 25.6109 25.0152 31.483 17.992 31.483Z" fill="#FFFBFB"/>
</svg>
