<svg width="38" height="37" viewBox="0 0 38 37" fill="none" xmlns="http://www.w3.org/2000/svg">
<path d="M19.0421 0C8.31403 0 0 7.63462 0 17.9467C0 23.3403 2.27617 28.0013 5.98117 31.2211C6.62089 31.7813 6.48911 32.1059 6.5979 35.5651C6.60647 35.8074 6.67579 36.044 6.79982 36.2542C6.92384 36.4644 7.09881 36.6419 7.30946 36.7712C7.52011 36.9004 7.76003 36.9776 8.00832 36.9958C8.2566 37.014 8.50569 36.9728 8.73387 36.8758C12.7875 35.1376 12.8396 35.0004 13.5268 35.1824C25.2708 38.3298 38 31.0115 38 17.9467C38 7.63462 29.771 0 19.0421 0ZM30.4758 13.8108L24.8831 22.4324C24.6719 22.7566 24.3942 23.0348 24.0674 23.2496C23.7407 23.4645 23.3718 23.6112 22.9841 23.6808C22.5963 23.7503 22.198 23.7411 21.8141 23.6538C21.4301 23.5665 21.0689 23.4028 20.7529 23.1732L16.3032 19.9303C16.1043 19.785 15.8624 19.7065 15.6137 19.7065C15.3651 19.7065 15.1231 19.785 14.9242 19.9303L8.92004 24.3646C8.11867 24.9561 7.06907 24.0214 7.60919 23.1956L13.2019 14.574C13.4131 14.2497 13.6907 13.9714 14.0175 13.7565C14.3443 13.5416 14.7131 13.3948 15.1009 13.3252C15.4887 13.2557 15.887 13.2649 16.271 13.3523C16.6549 13.4397 17.0162 13.6034 17.3321 13.8332L21.7803 17.0753C21.9792 17.2206 22.2211 17.2991 22.4698 17.2991C22.7185 17.2991 22.9604 17.2206 23.1593 17.0753L29.1665 12.6455C29.9664 12.0502 31.016 12.9842 30.4758 13.8108Z" fill="#FFF8F8"/>
</svg>
